<svg xmlns="http://www.w3.org/2000/svg" width="33.461" height="21.867" viewBox="924.319 835.319 33.461 21.867"><g data-name="Groupe 4"><path d="M941.04 857.172c-4.866 0-9.73-.005-14.596.006-.861.002-1.52-.318-1.899-1.085-.147-.297-.209-.666-.21-1.002-.012-5.893.001-11.785-.016-17.677-.003-1.26.973-2.097 2.125-2.094 9.73.022 19.46.023 29.191-.001 1.173-.003 2.15.837 2.145 2.147a2195.81 2195.81 0 0 0 0 17.573c.005 1.31-.972 2.155-2.145 2.147-4.865-.033-9.73-.014-14.595-.014Zm.008-1.275h14.46c.774 0 .973-.197.973-.96v-17.368c0-.764-.2-.96-.973-.96h-28.92c-.77 0-.973.199-.973.96v17.367c0 .761.202.96.973.96h14.46Z" fill="#fff500" fill-rule="evenodd" data-name="Tracé 38"/><path d="m927.232 839.096.634-1.097c.116.06.225.111.331.171 4.092 2.337 8.186 4.67 12.27 7.018.425.244.769.234 1.19-.008 4.104-2.36 8.219-4.704 12.33-7.053.07-.04.143-.077.254-.137l.64 1.098c-.135.082-.26.159-.388.232-4.03 2.304-8.07 4.594-12.089 6.918-.932.54-1.762.545-2.7.001-3.966-2.3-7.955-4.56-11.937-6.834l-.535-.309Z" fill="#fff500" fill-rule="evenodd" data-name="Tracé 39"/><path d="m937.65 846.615.637 1.118-10.426 5.953-.643-1.114 10.432-5.957Z" fill="#fff500" fill-rule="evenodd" data-name="Tracé 40"/><path d="m954.868 852.57-.64 1.115-10.116-5.775.637-1.118 10.119 5.778Z" fill="#fff500" fill-rule="evenodd" data-name="Tracé 41"/></g></svg>